<svg xmlns="http://www.w3.org/2000/svg" xmlns:xlink="http://www.w3.org/1999/xlink" viewBox="0 0 1962.77 1399.33"><defs><style>.cls-1{isolation:isolate;}.cls-2{fill:url(#radial-gradient);}.cls-3{fill:url(#linear-gradient);}.cls-4{fill:url(#New_Gradient_Swatch_13);}.cls-5{fill:none;}.cls-6{mix-blend-mode:screen;fill:url(#radial-gradient-2);}.cls-7{fill:url(#linear-gradient-2);}.cls-8{fill:url(#linear-gradient-3);}.cls-9{fill:url(#linear-gradient-4);}.cls-10{fill:url(#linear-gradient-5);}.cls-11{fill:url(#linear-gradient-6);}.cls-12{fill:url(#linear-gradient-7);}.cls-13{fill:url(#linear-gradient-8);}.cls-14{fill:url(#linear-gradient-9);}.cls-15{fill:url(#linear-gradient-10);}.cls-16{fill:#f71862;}.cls-17{fill:#0124af;}</style><radialGradient id="radial-gradient" cx="960.63" cy="692.19" r="737.72" gradientTransform="translate(-68.6 -202.58) scale(1.09 1.3)" gradientUnits="userSpaceOnUse"><stop offset="0" stop-color="#0124af"/><stop offset="0.11" stop-color="#0122a5"/><stop offset="0.31" stop-color="#011c89"/><stop offset="0.57" stop-color="#01135c"/><stop offset="0.87" stop-color="#00061e"/><stop offset="1"/></radialGradient><linearGradient id="linear-gradient" x1="180.88" y1="762.05" x2="515.44" y2="762.05" gradientUnits="userSpaceOnUse"><stop offset="0" stop-color="#f71862"/><stop offset="0.49" stop-color="#0124af"/><stop offset="0.52" stop-color="#01209b"/><stop offset="0.72" stop-color="#000a30"/><stop offset="0.81" stop-color="#000106"/><stop offset="1"/></linearGradient><linearGradient id="New_Gradient_Swatch_13" x1="270.81" y1="764.79" x2="426.2" y2="764.79" gradientUnits="userSpaceOnUse"><stop offset="0" stop-color="#fff"/><stop offset="0.2" stop-color="#c9b8a0"/><stop offset="0.59" stop-color="#a175a7"/><stop offset="1" stop-color="#662483"/></linearGradient><radialGradient id="radial-gradient-2" cx="1104.32" cy="1344.7" r="259.58" gradientTransform="matrix(0, 1.61, -1.02, 0, 1767.03, -946.76)" gradientUnits="userSpaceOnUse"><stop offset="0.09" stop-color="#f71862"/><stop offset="0.12" stop-color="#eb175d"/><stop offset="0.22" stop-color="#b41248"/><stop offset="0.32" stop-color="#840d34"/><stop offset="0.42" stop-color="#5b0924"/><stop offset="0.53" stop-color="#3a0617"/><stop offset="0.64" stop-color="#21030d"/><stop offset="0.75" stop-color="#0e0106"/><stop offset="0.87" stop-color="#040001"/><stop offset="1"/></radialGradient><linearGradient id="linear-gradient-2" x1="359.24" y1="1094.09" x2="350.47" y2="1014.34" gradientUnits="userSpaceOnUse"><stop offset="0"/><stop offset="0.09" stop-color="#000826"/><stop offset="0.3" stop-color="#011b86"/><stop offset="0.38" stop-color="#0124af"/><stop offset="0.89" stop-color="#f71862"/></linearGradient><linearGradient id="linear-gradient-3" x1="443.51" y1="1093.08" x2="230.98" y2="608.2" gradientUnits="userSpaceOnUse"><stop offset="0" stop-color="#f71862"/><stop offset="0.25" stop-color="#1223aa"/><stop offset="0.61" stop-color="#010106"/><stop offset="1"/></linearGradient><linearGradient id="linear-gradient-4" x1="561.9" y1="1010.76" x2="635.57" y2="1010.76" gradientUnits="userSpaceOnUse"><stop offset="0" stop-color="#f71862"/><stop offset="0.09" stop-color="#ef1864"/><stop offset="0.22" stop-color="#da196b"/><stop offset="0.39" stop-color="#b71b76"/><stop offset="0.58" stop-color="#871d85"/><stop offset="0.79" stop-color="#492199"/><stop offset="1" stop-color="#0124af"/></linearGradient><linearGradient id="linear-gradient-5" x1="610.7" y1="1000.51" x2="644.46" y2="1065.38" gradientTransform="translate(1263.2 2057.73) rotate(180)" gradientUnits="userSpaceOnUse"><stop offset="0"/><stop offset="0.12" stop-color="#000826"/><stop offset="0.4" stop-color="#011b86"/><stop offset="0.51" stop-color="#0124af"/><stop offset="1" stop-color="#f71862"/></linearGradient><linearGradient id="linear-gradient-6" x1="662.87" y1="1022.61" x2="687.05" y2="1022.61" gradientTransform="translate(1085.08 2177.22) rotate(-166.13)" xlink:href="#linear-gradient-4"/><linearGradient id="linear-gradient-7" x1="560.76" y1="1035.33" x2="583.51" y2="1035.33" xlink:href="#linear-gradient-4"/><linearGradient id="linear-gradient-8" x1="644.88" y1="1017.89" x2="674.13" y2="1017.89" gradientTransform="translate(1072.99 2158.11) rotate(-166.99)" xlink:href="#linear-gradient-4"/><linearGradient id="linear-gradient-9" x1="622.47" y1="1011.98" x2="660.64" y2="1011.98" xlink:href="#linear-gradient-4"/><linearGradient id="linear-gradient-10" x1="589.19" y1="1007.04" x2="613.51" y2="1007.04" xlink:href="#linear-gradient-4"/></defs><g class="cls-1"><g id="Layer_1" data-name="Layer 1"><rect class="cls-2" x="3.67" width="1959.09" height="1399.33"/><path class="cls-3" d="M454,846.21c-.88-.2-1.78-.4-2.69-.57-23.23-21.47-7.38-111.1-7.38-111.1,0-136.62-92.41-123.18-92.41-123.18-1.13-.07-2.25-.11-3.35-.15s-2.22.08-3.35.14c0,0-92.41-13.44-92.41,123.18,0,0,15.85,89.64-7.38,111.1-.91.18-1.81.37-2.69.57-7.53,1.76-42,4-61.44,66.91H515.44C496,850.24,461.5,848,454,846.21Z" transform="translate(22.59)"/><path class="cls-4" d="M425.52,755c-1.25,7.88-4,14.38-7,17.15a4.14,4.14,0,0,1-3.54,1.41,3.27,3.27,0,0,1-1.76-1c-6.49,22.46-18.91,44.82-34.55,58.26-9.13,7.85-19.38,12.66-30.19,12.66s-21.19-4.86-30.37-12.8c-15.57-13.46-27.91-35.75-34.37-58.12a3.33,3.33,0,0,1-1.77,1c-1.33.26-2.74-.49-4.1-2-2.73-3-5.22-9.18-6.41-16.56-1.56-9.72-.33-18.28,2.74-20.74a3.19,3.19,0,0,1,1.36-.66,4,4,0,0,1,3.38,1.27h0s0-.11,0-.29c.39-4.22,5.44-51.5,37.24-48.22L413.52,742l7.9-8.47a3,3,0,0,1,.79.29C425.69,735.67,427.17,744.68,425.52,755Z" transform="translate(22.59)"/><circle cx="340.01" cy="758.68" r="20.65"/><circle cx="401.75" cy="758.68" r="20.65"/><rect y="1045.27" width="1962.56" height="349.15"/><circle class="cls-5" cx="487.89" cy="1003.31" r="9.34"/><ellipse class="cls-6" cx="401.18" cy="829.74" rx="263.66" ry="417.58" transform="matrix(0.01, -1, 1, 0.01, -408.69, 1225.23)"/><ellipse class="cls-6" cx="401.18" cy="829.74" rx="263.66" ry="417.58" transform="matrix(0.01, -1, 1, 0.01, -408.69, 1225.23)"/><path class="cls-7" d="M499.71,1074.2H209c-12.11,0-23.15-8-28.4-20.54l-.92-2.21c-1.28-3,.66-6.59,3.6-6.59h342.2c2.94,0,4.88,3.54,3.6,6.59l-.92,2.21C522.86,1066.22,511.82,1074.2,499.71,1074.2Z" transform="translate(22.59)"/><path class="cls-8" d="M504.58,1042.06H204.13L165.21,834.34a19,19,0,0,1,18.7-22.52H524.8a19,19,0,0,1,18.7,22.52Z" transform="translate(22.59)"/><path class="cls-9" d="M561.9,1033.18a4,4,0,0,0,2.29-.55c2.62-1.26,9.39-11,16.29-23.15,10.89-19.21,13.45-28.18,13.45-28.18l14.73-4.49s4.41,4.79,14.1,4.49c20.49-.64,8.32,10.25,8.32,10.25l4.49,17.29-32,14.73-25,21.14" transform="translate(22.59)"/><path class="cls-10" d="M589.09,999.55h85A10.88,10.88,0,0,1,685,1010.44V1016a42.16,42.16,0,0,1-42.16,42.16H620.36A42.16,42.16,0,0,1,578.21,1016v-5.59a10.88,10.88,0,0,1,10.88-10.88Z" transform="translate(1285.79 2057.73) rotate(-180)"/><rect class="cls-11" x="666.46" y="999.13" width="17" height="46.96" rx="8.5" transform="translate(1597.98 1853.59) rotate(166.13)"/><path class="cls-12" d="M565.87,1047.3c5,3.39,11.52,2.52,14.54-2s5.07-20,.07-23.38-15.16,6.64-18.19,11.11S560.87,1043.92,565.87,1047.3Z" transform="translate(22.59)"/><rect class="cls-13" x="649.04" y="988.97" width="20.93" height="57.84" rx="10.47" transform="translate(1553.77 1861.24) rotate(166.99)"/><path class="cls-14" d="M652.28,1041.28h0a13,13,0,0,0,7.5-16.79L644.06,989a11.17,11.17,0,0,0-14.41-6.44h0A11.16,11.16,0,0,0,623.21,997l12.29,36.82A13,13,0,0,0,652.28,1041.28Z" transform="translate(22.59)"/><path class="cls-15" d="M600.66,1039.85h0a12.17,12.17,0,0,0,12.85-11.46L613.09,984a9.31,9.31,0,0,0-8.76-9.82h0a9.31,9.31,0,0,0-9.82,8.77l-5.3,44A12.16,12.16,0,0,0,600.66,1039.85Z" transform="translate(22.59)"/><ellipse class="cls-16" cx="441.46" cy="915.05" rx="39.49" ry="34.7" transform="translate(-484.32 550.65) rotate(-43.23)"/><path d="M427.51,928.1a18,18,0,0,1-3.55-5,2.31,2.31,0,0,0-.35.35c-3.9,3.9-4.35,10-4.4,12.19a.79.79,0,0,0,.8.8c2.15,0,8.3-.5,12.2-4.4l.35-.35A18.16,18.16,0,0,1,427.51,928.1Z" transform="translate(22.59)"/><path d="M452.9,924.51l-.45-1.2c.15-.15.35-.3.5-.45,9.15-9.15,10.2-23.55,10.25-28.6a1.81,1.81,0,0,0-1.85-1.85c-5.05.05-19.44,1.1-28.59,10.25-.15.15-.3.35-.45.5l-1.2-.45a8.69,8.69,0,0,0-9.4,2.1l-5.75,6a.91.91,0,0,0,.35,1.5L426,916a13.63,13.63,0,0,0,13.65,13.64l3.75,9.65a.94.94,0,0,0,1.5.35l6-5.75A8.75,8.75,0,0,0,452.9,924.51Zm.1-21.9a3.32,3.32,0,1,1-4.7,0A3.32,3.32,0,0,1,453,902.61Zm-14.69,14.7a4.67,4.67,0,1,1,6.6,0A4.71,4.71,0,0,1,438.31,917.31Z" transform="translate(22.59)"/><ellipse class="cls-17" cx="284.79" cy="961.25" rx="39.21" ry="40.61" transform="translate(-484.32 346.17) rotate(-35.65)"/><path class="cls-16" d="M279.05,969.93l13.09-1.83a11,11,0,0,0,9.38-12.43l-.91-6.54A17.62,17.62,0,1,0,265.7,954l.92,6.55A11,11,0,0,0,279.05,969.93Zm-9-16.54a13.21,13.21,0,1,1,26.17-3.65l.92,6.54a6.62,6.62,0,0,1-5.63,7.46l-13.09,1.83a6.62,6.62,0,0,1-7.46-5.63Z" transform="translate(22.59)"/><path class="cls-16" d="M274.68,955a4.88,4.88,0,0,1,4.16-5.5l7.91-1.11a4.88,4.88,0,0,1,2.29,9.43h0a25.22,25.22,0,0,1-9.82,1.37h0A4.86,4.86,0,0,1,274.68,955Z" transform="translate(22.59)"/><path class="cls-16" d="M265.56,971.35a15.44,15.44,0,0,0,3.84,2.11,6.62,6.62,0,0,0-.87,4.24l.61,4.37a2.2,2.2,0,0,1-4.36.61l-.61-4.37a10.9,10.9,0,0,1,1.39-7Z" transform="translate(22.59)"/><path class="cls-16" d="M308.46,972.16l.61,4.36a2.21,2.21,0,0,1-4.37.61l-.61-4.36a6.44,6.44,0,0,0-2-3.84,15.23,15.23,0,0,0,3.12-3.09,10.92,10.92,0,0,1,3.25,6.32Z" transform="translate(22.59)"/><path class="cls-16" d="M295.53,973.55a6.62,6.62,0,0,1,2.52,4.32l.3,2.19a2.2,2.2,0,1,1-4.36.6l-.3-2.18a2.21,2.21,0,0,0-2.49-1.87l-8.73,1.21a2.21,2.21,0,0,0-1.87,2.49l.3,2.18a2.2,2.2,0,1,1-4.36.61l-.3-2.18a6.59,6.59,0,0,1,1.24-4.85A15.18,15.18,0,0,0,280,976l13.09-1.83A15.31,15.31,0,0,0,295.53,973.55Z" transform="translate(22.59)"/></g></g></svg>